<?xml version="1.0" encoding="UTF-8" standalone="no"?>
<svg
   xmlns:dc="http://purl.org/dc/elements/1.1/"
   xmlns:cc="http://creativecommons.org/ns#"
   xmlns:rdf="http://www.w3.org/1999/02/22-rdf-syntax-ns#"
   xmlns:svg="http://www.w3.org/2000/svg"
   xmlns="http://www.w3.org/2000/svg"
   xmlns:sodipodi="http://sodipodi.sourceforge.net/DTD/sodipodi-0.dtd"
   xmlns:inkscape="http://www.inkscape.org/namespaces/inkscape"
   version="1.1"
   viewBox="0 0 22.32658 22.32658"
   class="ts_full"
   id="svg4136"
   inkscape:version="0.91 r13725"
   sodipodi:docname="icon2.svg"
   width="22.32658"
   height="22.32658">
  <metadata
     id="metadata4151">
    <rdf:RDF>
      <cc:Work
         rdf:about="">
        <dc:format>image/svg+xml</dc:format>
        <dc:type
           rdf:resource="http://purl.org/dc/dcmitype/StillImage" />
        <dc:title />
      </cc:Work>
    </rdf:RDF>
  </metadata>
  <defs
     id="defs4149" />
  <sodipodi:namedview
     pagecolor="#ffffff"
     bordercolor="#666666"
     borderopacity="1"
     objecttolerance="10"
     gridtolerance="10"
     guidetolerance="10"
     inkscape:pageopacity="0"
     inkscape:pageshadow="2"
     inkscape:window-width="1366"
     inkscape:window-height="706"
     id="namedview4147"
     showgrid="false"
     inkscape:zoom="10.322172"
     inkscape:cx="-0.91187706"
     inkscape:cy="4.6567799"
     inkscape:window-x="-8"
     inkscape:window-y="-8"
     inkscape:window-maximized="1"
     inkscape:current-layer="g4138" />
  <g
     transform="translate(-292.0152,-382.52579)"
     id="g4138">
    <path
       inkscape:connector-curvature="0"
       id="path4146"
       style="font-style:normal;font-variant:normal;font-weight:normal;font-stretch:normal;font-size:medium;font-family:Roboto;-inkscape-font-specification:Roboto"
       d="m 296.0006,384.504 0.97929,0 0,5.23134 q 0,1.06048 -0.63933,1.65922 -0.63426,0.59874 -1.69473,0.59874 -1.10107,0 -1.71503,-0.56322 -0.61396,-0.56322 -0.61396,-1.57803 l 0.97422,0 q 0,0.63425 0.34503,0.98944 0.35011,0.35518 1.00974,0.35518 0.60381,0 0.97422,-0.38055 0.37548,-0.38056 0.38055,-1.06555 l 0,-5.24657 z" />
    <path
       inkscape:connector-curvature="0"
       id="path4148"
       style="font-style:normal;font-variant:normal;font-weight:normal;font-stretch:normal;font-size:medium;font-family:Roboto;-inkscape-font-specification:Roboto"
       d="m 299.52199,391.89182 -0.9387,0 0,-5.49013 0.9387,0 0,5.49013 z m -1.01481,-6.94638 q 0,-0.22833 0.137,-0.38563 0.14207,-0.1573 0.41607,-0.1573 0.274,0 0.41607,0.1573 0.14208,0.1573 0.14208,0.38563 0,0.22833 -0.14208,0.38055 -0.14207,0.15222 -0.41607,0.15222 -0.274,0 -0.41607,-0.15222 -0.137,-0.15222 -0.137,-0.38055 z" />
    <path
       inkscape:connector-curvature="0"
       id="path4150"
       style="font-style:normal;font-variant:normal;font-weight:normal;font-stretch:normal;font-size:medium;font-family:Roboto;-inkscape-font-specification:Roboto"
       d="m 301.90172,386.40169 0.0254,0.60889 q 0.60381,-0.71037 1.62877,-0.71037 1.15181,0 1.56789,0.88288 0.27399,-0.39577 0.71036,-0.63933 0.44145,-0.24355 1.04018,-0.24355 1.80637,0 1.83681,1.91292 l 0,3.67869 -0.9387,0 0,-3.62288 q 0,-0.58859 -0.26892,-0.87781 -0.26893,-0.29429 -0.90319,-0.29429 -0.52262,0 -0.86766,0.31459 -0.34503,0.30951 -0.40085,0.83722 l 0,3.64317 -0.94377,0 0,-3.59751 q 0,-1.19747 -1.17211,-1.19747 -0.92348,0 -1.26344,0.78647 l 0,4.00851 -0.9387,0 0,-5.49013 0.88796,0 z" />
    <path
       inkscape:connector-curvature="0"
       id="path4153"
       style="font-style:normal;font-variant:normal;font-weight:normal;font-stretch:normal;font-size:medium;font-family:Roboto;-inkscape-font-specification:Roboto"
       d="m 298.01328,401.85031 -0.97929,0 0,-3.41484 -3.72435,0 0,3.41484 -0.97422,0 0,-7.38782 0.97422,0 0,3.17636 3.72435,0 0,-3.17636 0.97929,0 0,7.38782 z" />
    <path
       inkscape:connector-curvature="0"
       id="path4155"
       style="font-style:normal;font-variant:normal;font-weight:normal;font-stretch:normal;font-size:medium;font-family:Roboto;-inkscape-font-specification:Roboto"
       d="m 302.98586,401.85031 q -0.0812,-0.16237 -0.13193,-0.57844 -0.65455,0.67992 -1.56281,0.67992 -0.81185,0 -1.33447,-0.45666 -0.51756,-0.46174 -0.51756,-1.16703 0,-0.85752 0.64948,-1.32941 0.65455,-0.47696 1.83681,-0.47696 l 0.91333,0 0,-0.43129 q 0,-0.49218 -0.2943,-0.78141 -0.29429,-0.29429 -0.86766,-0.29429 -0.50233,0 -0.84229,0.2537 -0.33996,0.2537 -0.33996,0.61396 l -0.94378,0 q 0,-0.411 0.28922,-0.79155 0.2943,-0.38563 0.79156,-0.60889 0.50233,-0.22325 1.10106,-0.22325 0.94885,0 1.4867,0.47696 0.53785,0.47188 0.55815,1.30403 l 0,2.52688 q 0,0.75603 0.19281,1.20255 l 0,0.0812 -0.98436,0 z m -1.55774,-0.71544 q 0.44144,0 0.83722,-0.22833 0.39578,-0.22833 0.57337,-0.59367 l 0,-1.12644 -0.73574,0 q -1.72518,0 -1.72518,1.00974 0,0.44144 0.2943,0.69007 0.29429,0.24863 0.75603,0.24863 z" />
    <path
       inkscape:connector-curvature="0"
       id="path4157"
       style="font-style:normal;font-variant:normal;font-weight:normal;font-stretch:normal;font-size:medium;font-family:Roboto;-inkscape-font-specification:Roboto"
       d="m 306.97406,400.47524 1.27866,-4.11505 1.00466,0 -2.20721,6.33749 q -0.51248,1.36999 -1.62877,1.36999 l -0.17759,-0.0152 -0.35011,-0.066 0,-0.76111 0.2537,0.0203 q 0.47696,0 0.74081,-0.19282 0.26893,-0.19281 0.44145,-0.70529 l 0.20803,-0.55815 -1.95858,-5.42923 1.02496,0 1.36999,4.11505 z" />
    <path
       inkscape:connector-curvature="0"
       id="path4159"
       style="font-style:normal;font-variant:normal;font-weight:normal;font-stretch:normal;font-size:medium;font-family:Roboto;-inkscape-font-specification:Roboto"
       d="m 313.28618,400.39406 q 0,-0.38056 -0.28922,-0.58859 -0.28415,-0.21311 -0.99959,-0.36533 -0.71036,-0.15223 -1.13151,-0.36534 -0.41607,-0.21311 -0.61904,-0.5074 -0.19788,-0.2943 -0.19788,-0.70022 0,-0.67485 0.56829,-1.14166 0.57337,-0.46681 1.46133,-0.46681 0.93362,0 1.51207,0.48203 0.58351,0.48204 0.58351,1.233 l -0.94377,0 q 0,-0.38563 -0.32982,-0.66471 -0.32474,-0.27907 -0.82199,-0.27907 -0.51248,0 -0.8017,0.22326 -0.28922,0.22326 -0.28922,0.58352 0,0.33996 0.26892,0.51248 0.26893,0.17251 0.96915,0.32981 0.70529,0.15729 1.14166,0.37548 0.43637,0.21818 0.6444,0.5277 0.21311,0.30444 0.21311,0.74589 0,0.73573 -0.58859,1.18225 -0.58859,0.44144 -1.52729,0.44144 -0.65962,0 -1.16703,-0.2334 -0.50741,-0.23341 -0.79663,-0.64948 -0.28414,-0.42115 -0.28414,-0.90826 l 0.9387,0 q 0.0254,0.47189 0.37548,0.75096 0.35518,0.274 0.93362,0.274 0.53278,0 0.85244,-0.21311 0.32474,-0.21818 0.32474,-0.57844 z" />
  </g>
</svg>
