<?xml version="1.0" encoding="UTF-8" standalone="no"?>
<!-- Created with Inkscape (http://www.inkscape.org/) -->

<svg
   width="96"
   height="96"
   viewBox="0 0 25.4 25.400001"
   version="1.1"
   id="svg7588"
   inkscape:version="1.1.2 (b8e25be8, 2022-02-05)"
   sodipodi:docname="the-calvinball.svg"
   inkscape:export-filename="/Users/jimhays/Documents/GitHub/calvinballing.github.io/favicon-16x16.png"
   inkscape:export-xdpi="16"
   inkscape:export-ydpi="16"
   xmlns:inkscape="http://www.inkscape.org/namespaces/inkscape"
   xmlns:sodipodi="http://sodipodi.sourceforge.net/DTD/sodipodi-0.dtd"
   xmlns="http://www.w3.org/2000/svg"
   xmlns:svg="http://www.w3.org/2000/svg">
  <sodipodi:namedview
     id="namedview7590"
     pagecolor="#ffffff"
     bordercolor="#111111"
     borderopacity="1"
     inkscape:pageshadow="0"
     inkscape:pageopacity="0"
     inkscape:pagecheckerboard="1"
     inkscape:document-units="mm"
     showgrid="false"
     fit-margin-top="0.4"
     fit-margin-left="0.4"
     fit-margin-right="0.4"
     fit-margin-bottom="0.4"
     lock-margins="true"
     inkscape:zoom="5.2656254"
     inkscape:cx="14.908011"
     inkscape:cy="86.884267"
     inkscape:window-width="2560"
     inkscape:window-height="1387"
     inkscape:window-x="0"
     inkscape:window-y="25"
     inkscape:window-maximized="1"
     inkscape:current-layer="layer1"
     units="px"
     inkscape:snap-global="true"
     inkscape:snap-page="true" />
  <defs
     id="defs7585" />
  <g
     inkscape:label="Layer 1"
     inkscape:groupmode="layer"
     id="layer1"
     transform="translate(-54.91032,-62.92343)">
    <g
       id="g11348"
       transform="matrix(0.90231721,0,0,0.90231721,6.6932698,7.3811501)">
      <path
         id="path10549"
         style="fill:#ffffff;stroke-width:0.665001;stop-color:#000000"
         d="m 81.583498,75.664956 c 0.06175,8.196306 -5.326593,13.531129 -14.386035,12.943648 -7.796267,-0.505567 -13.871111,-5.110326 -13.756305,-13.427745 0.09935,-7.197701 6.800186,-12.623061 14.353999,-12.573145 9.344736,0.06175 13.736827,6.219637 13.788341,13.057242 z"
         sodipodi:nodetypes="sssss" />
      <g
         id="g2210-8-6-5"
         transform="matrix(1.5335543,0,0,1.5335543,136.63818,-166.01642)"
         clip-path="none"
         style="display:inline">
        <g
           id="g2184-5-5-3"
           style="display:inline">
          <path
             style="display:inline;fill:#fffdfc;fill-opacity:1;stroke:none;stroke-width:0.264583px;stroke-linecap:butt;stroke-linejoin:miter;stroke-opacity:1"
             d="m -42.091518,151.01431 c 4.100298,2.86528 5.250085,7.32657 3.486177,9.9991 -3.353903,5.08157 -15.008715,4.86631 -13.278549,-5.3675 l 2.639,-3.43284 z"
             id="path1652-2-99-3-4"
             sodipodi:nodetypes="csccc" />
          <path
             style="display:inline;fill:#bbd7e7;fill-opacity:1;stroke-width:0.264583"
             d="m -46.888125,164.62826 c -2.118114,-0.69704 -3.969866,-1.69434 -4.760658,-2.56393 -1.464578,-1.61054 -0.537298,-6.1913 0.373742,-8.00502 1.301869,10.42306 8.300593,7.99445 12.628337,7.26878 -1.866409,1.69438 -6.346666,3.92371 -8.241421,3.3003 z"
             id="path1575-3-3-5"
             sodipodi:nodetypes="cscccc" />
          <path
             style="display:inline;fill:#cfb79c;stroke-width:0.264583"
             d="m -46.334474,164.61934 c -0.436562,0 -0.79375,-0.11906 -0.79375,-0.26458 0,-0.14552 -0.357187,-0.26459 -0.79375,-0.26459 -0.436562,0 -0.79375,-0.11906 -0.79375,-0.26458 0,-0.14552 -0.238125,-0.26458 -0.529166,-0.26458 -0.291042,0 -0.529167,-0.11906 -0.529167,-0.26459 0,-0.14552 -0.182563,-0.26458 -0.405694,-0.26458 -0.666578,0 -2.240139,-1.75941 -2.240139,-2.50472 0,-0.36865 -0.119063,-0.67028 -0.264584,-0.67028 -0.156789,0 -0.264583,-0.97014 -0.264583,-2.38125 0.02494,-2.27935 0.802267,-4.09031 3.830706,-6.08542 1.325142,-0.72149 2.961659,-1.05424 4.371377,-1.05833 2.689955,-0.0218 6.400724,1.77497 6.614583,3.56306 0,0.36865 0.119062,0.67027 0.264583,0.67027 0.145521,0 0.264584,0.35719 0.264584,0.79375 0,0.43657 0.119062,0.79375 0.264583,0.79375 0.151191,0 0.264583,0.79375 0.264583,1.85209 -0.56044,2.88608 -2.530845,6.59342 -5.291666,6.61458 -2.351069,0.50567 -2.626822,0.0137 -3.96875,0 z m 3.539564,-1.45876 c 0.865399,-0.36159 1.347846,-1.18707 0.693769,-1.18707 -0.145521,0 -0.264583,-0.18154 -0.264583,-0.40343 0,-0.22188 -0.267891,-0.50866 -0.595313,-0.6373 -0.542464,-0.21312 -1.521354,-1.16272 -1.521354,-1.47584 0,-0.28403 1.02443,-0.10742 1.168577,0.20146 0.123471,0.26459 0.185209,0.26459 0.308679,0 0.08494,-0.18201 0.620303,-0.33073 1.190625,-0.33073 0.569958,0 1.036286,-0.11906 1.036286,-0.26458 0,-0.14552 0.180263,-0.26458 0.400584,-0.26458 0.220324,0 0.814163,-0.26789 1.319644,-0.59531 0.778258,-0.50412 0.919557,-0.74732 0.922329,-1.5875 0.0019,-0.54571 -0.08755,-0.99219 -0.198567,-0.99219 -0.111014,0 -0.319373,-0.26019 -0.463021,-0.5782 -0.373771,-0.82745 -0.721505,-0.8469 -1.602102,-0.0896 -0.426659,0.36693 -0.92457,0.66729 -1.106471,0.66747 -0.181901,1.7e-4 -0.33073,0.11938 -0.33073,0.2649 0,0.14552 -0.238125,0.26458 -0.529166,0.26458 -0.291042,0 -0.529167,0.11907 -0.529167,0.26459 0,0.14552 -0.26789,0.26837 -0.595312,0.273 -1.138494,0.0161 -2.086965,1.33298 -1.190625,1.6531 0.181901,0.065 0.247102,0.20813 0.144891,0.31813 -0.248658,0.26762 -1.004787,-0.51102 -1.004787,-1.03471 0,-0.22867 -0.119062,-0.41577 -0.264583,-0.41577 -0.145521,0 -0.264584,-0.23813 -0.264584,-0.52917 0,-0.56654 0.418632,-0.72848 0.585912,-0.22664 0.07566,0.22697 0.242001,0.22697 0.666112,0 0.310899,-0.16639 0.870755,-0.30253 1.244124,-0.30253 0.37337,0 0.678852,-0.11906 0.678852,-0.26458 0,-0.14552 0.238125,-0.26458 0.529167,-0.26458 0.291041,0 0.529166,-0.099 0.529166,-0.21988 0,-0.12093 0.327422,-0.38882 0.727605,-0.59531 1.683908,-0.86888 1.740881,-1.41469 0.240106,-2.30017 -0.915839,-0.54036 -0.941646,-0.54119 -1.509366,-0.0488 -0.317679,0.27552 -0.921078,0.65299 -1.340887,0.83881 -0.419809,0.18583 -0.763291,0.42786 -0.763291,0.53786 0,0.11 -0.308803,0.2 -0.686228,0.2 -0.463714,0 -0.7311,0.17159 -0.824609,0.52916 -0.07611,0.29105 -0.243557,0.52917 -0.372104,0.52917 -0.128548,0 -0.233725,-0.23812 -0.233725,-0.52917 0,-0.39197 -0.17639,-0.52916 -0.680358,-0.52916 -0.728675,0 -1.170172,0.33126 -1.659104,1.24483 -0.375618,0.70185 -0.405482,2.45933 -0.04179,2.45933 0.145521,0 0.264583,0.29063 0.264583,0.64585 0,0.35521 0.119063,0.71943 0.264583,0.80936 0.145521,0.0899 0.264584,0.33676 0.264584,0.54849 0,0.61891 1.133218,2.17872 1.852083,2.54928 0.363802,0.18754 0.72099,0.41087 0.79375,0.4963 0.228756,0.26858 1.177615,0.75512 1.489043,0.76351 0.164129,0.004 0.729676,-0.17214 1.256771,-0.39238 z m -4.569915,-0.63177 c -0.451953,-0.42218 -0.821732,-0.95797 -0.821732,-1.19062 0,-0.23266 -0.119063,-0.42302 -0.264584,-0.42302 -0.14552,0 -0.264583,-0.23812 -0.264583,-0.52916 0,-0.29104 -0.119062,-0.52917 -0.264583,-0.52917 -0.145521,0 -0.264583,-0.29063 -0.264583,-0.64584 0,-0.35522 -0.119063,-0.71943 -0.264584,-0.80937 -0.145521,-0.0899 -0.266208,-0.48391 -0.268195,-0.87551 -0.0021,-0.39159 -0.07399,-0.97445 -0.159999,-1.29525 -0.147695,-0.55085 -0.191598,-0.56018 -0.790138,-0.168 -0.559086,0.36632 -0.633751,0.61428 -0.633751,2.10461 0,0.92915 0.11104,1.68936 0.246753,1.68936 0.135715,0 0.322331,0.23813 0.414705,0.52917 0.09237,0.29104 0.338521,0.52916 0.546997,0.52916 0.244771,0 0.379045,0.28118 0.379045,0.79375 0,0.66014 0.106254,0.79375 0.631214,0.79375 0.347167,0 0.972245,0.17787 1.389062,0.39525 1.159949,0.60495 1.294749,0.47703 0.388956,-0.36911 z m 7.644934,-1.61364 c 0.15576,-0.29104 0.443727,-0.52916 0.639924,-0.52916 0.196196,0 0.419618,-0.32742 0.496493,-0.72761 0.165259,-0.86028 0.0316,-1.07541 -0.399994,-0.64381 -0.172199,0.17219 -0.527402,0.31308 -0.78934,0.31308 -0.261937,0 -0.47625,0.11907 -0.47625,0.26459 0,0.14552 -0.172992,0.26458 -0.384426,0.26458 -0.546939,0 -1.73224,0.57219 -1.73224,0.83622 0,0.12216 0.231097,0.22211 0.513551,0.22211 0.282453,0 0.587137,0.11907 0.677074,0.26459 0.278812,0.45113 1.157692,0.29133 1.455208,-0.26459 z m -11.035836,-5.82083 c 0.07611,-0.29104 0.32812,-0.52917 0.560025,-0.52917 0.231904,0 0.421645,-0.11906 0.421645,-0.26458 0,-0.14552 0.357187,-0.26458 0.79375,-0.26458 0.436562,0 0.79375,-0.11906 0.79375,-0.26459 0,-0.14552 0.238125,-0.26458 0.529166,-0.26458 0.291042,0 0.529167,-0.11906 0.529167,-0.26458 0,-0.14552 0.595313,-0.26459 1.322917,-0.26459 1.451935,0 1.690864,-0.27657 0.649009,-0.75127 -0.827712,-0.37714 -1.442759,-0.39524 -1.442759,-0.0425 0,0.14553 -0.409692,0.26459 -0.910426,0.26459 -0.500735,0 -0.984012,0.11906 -1.073949,0.26458 -0.08994,0.14552 -0.3405,0.26458 -0.556808,0.26458 -0.609841,0 -2.221317,1.81086 -2.221317,2.49615 0,0.39068 0.483653,0.0877 0.60583,-0.37948 z m 7.33167,-3.43958 c 0,-0.14552 -0.12609,-0.26459 -0.280199,-0.26459 -0.15411,0 -0.206614,0.11907 -0.116676,0.26459 0.08994,0.14552 0.216027,0.26458 0.280199,0.26458 0.06417,0 0.116676,-0.11906 0.116676,-0.26458 z"
             id="path1571-77-4-5"
             sodipodi:nodetypes="cssssssssccccssscccssssssssssscsssssssscssssssssssssssssssssssscssscssssssssccssssssssssssssssssssscsssssssssssssccsssss" />
          <path
             style="display:inline;fill:#9da19c;stroke-width:0.264583"
             d="m -46.35009,164.61931 c -0.427974,0 -0.778134,-0.11906 -0.778134,-0.26458 0,-0.14552 -0.290629,-0.26459 -0.645843,-0.26459 -0.355213,0 -0.719428,-0.11906 -0.809365,-0.26458 -0.08994,-0.14552 -0.394621,-0.26458 -0.677074,-0.26458 -0.282453,0 -0.513551,-0.11906 -0.513551,-0.26459 0,-0.14552 -0.166688,-0.26458 -0.370417,-0.26458 -0.619649,0 -2.275416,-1.8483 -2.275416,-2.54 0,-0.34925 -0.119063,-0.635 -0.264584,-0.635 -0.156789,0 -0.264583,-0.97014 -0.264583,-2.38125 0,-1.41111 0.107794,-2.38125 0.264583,-2.38125 0.145521,0 0.264584,-0.17355 0.264584,-0.38567 0,-0.47671 2.872224,-3.3185 3.354032,-3.3185 1.273294,-0.75069 2.942885,-1.05434 4.318884,-1.05833 1.41111,0 2.38125,0.1078 2.38125,0.26458 0,0.14553 0.357187,0.26459 0.79375,0.26459 0.436562,0 0.79375,0.11906 0.79375,0.26458 0,0.14552 0.182562,0.26458 0.405693,0.26458 0.666578,0 2.24014,1.75942 2.24014,2.50473 0,0.36865 0.119062,0.67027 0.264583,0.67027 0.145521,0 0.264584,0.35719 0.264584,0.79375 0,0.43657 0.119062,0.79375 0.264583,0.79375 0.151191,0 0.264583,0.79375 0.264583,1.85209 0,1.05833 -0.113392,1.85208 -0.264583,1.85208 -0.145521,0 -0.264583,0.29063 -0.264583,0.64584 -0.840736,2.58924 -2.235535,2.8825 -3.836459,3.85208 -0.08994,0.14552 -0.573214,0.26458 -1.073949,0.26458 -1.722468,0.35357 -2.575328,0.0131 -3.836458,0 z m 3.55518,-1.45876 c 0.865399,-0.36159 1.347846,-1.18707 0.693769,-1.18707 -0.145521,0 -0.264583,-0.18233 -0.264583,-0.40518 0,-0.22285 -0.208047,-0.48502 -0.462325,-0.58259 -0.478494,-0.18362 -1.654342,-1.25953 -1.654342,-1.51375 0,-0.2979 1.019276,-0.13057 1.135505,0.18641 0.09701,0.26459 0.191381,0.26459 0.471839,0 0.192815,-0.1819 0.743479,-0.33073 1.223698,-0.33073 0.480219,0 0.873125,-0.11906 0.873125,-0.26458 0,-0.14552 0.18021,-0.26458 0.400465,-0.26458 0.432702,0 1.356339,-0.47205 1.904407,-0.97329 0.399849,-0.36569 0.463542,-2.20171 0.07638,-2.20171 -0.145521,0 -0.264584,-0.1871 -0.264584,-0.41578 0,-0.22867 -0.183105,-0.59888 -0.4069,-0.82267 -0.366146,-0.36614 -0.452273,-0.35745 -0.859896,0.0868 -0.249147,0.27156 -0.780417,0.66189 -1.180599,0.86739 -0.400183,0.20549 -0.727605,0.47257 -0.727605,0.5935 0,0.12093 -0.238125,0.21987 -0.529166,0.21987 -0.291042,0 -0.529167,-0.11906 -0.529167,-0.26458 0,-0.14552 0.238125,-0.26458 0.529167,-0.26458 0.291041,0 0.529166,-0.11906 0.529166,-0.26459 0,-0.14552 0.148829,-0.26472 0.33073,-0.2649 0.50107,-5.3e-4 1.785937,-1.19614 1.785937,-1.66193 0,-0.22553 -0.357187,-0.56817 -0.79375,-0.76141 -0.436562,-0.19324 -0.79375,-0.44134 -0.79375,-0.55134 0,-0.34186 -0.756089,-0.21927 -0.97904,0.15873 -0.116372,0.1973 -0.658069,0.56805 -1.203772,0.8239 -0.545703,0.25584 -0.992188,0.57066 -0.992188,0.6996 0,0.12894 -0.357187,0.23444 -0.79375,0.23444 -0.61736,0 -0.79375,0.11759 -0.79375,0.52916 0,0.29105 -0.119062,0.52917 -0.264583,0.52917 -0.145521,0 -0.264583,-0.23812 -0.264583,-0.52917 0,-0.39197 -0.17639,-0.52916 -0.680358,-0.52916 -0.728675,0 -1.170172,0.33126 -1.659104,1.24483 -0.375618,0.70185 -0.405482,2.45933 -0.04179,2.45933 0.145521,0 0.264583,0.35719 0.264583,0.79375 0,0.43657 0.119063,0.79375 0.264583,0.79375 0.145521,0 0.264584,0.18027 0.264584,0.40059 0,0.6321 1.125016,2.1901 1.852083,2.56489 0.363802,0.18754 0.72099,0.41087 0.79375,0.4963 0.228756,0.26858 1.177615,0.75512 1.489043,0.76351 0.164129,0.004 0.729676,-0.17214 1.256771,-0.39238 z m -2.415085,-4.75784 c -0.181901,-0.20661 -0.330729,-0.55927 -0.330729,-0.78369 0,-0.22442 -0.119062,-0.40804 -0.264583,-0.40804 -0.145521,0 -0.264584,-0.23813 -0.264584,-0.52917 0,-0.29104 0.119063,-0.52917 0.264584,-0.52917 0.145521,0 0.264583,0.11907 0.264583,0.26459 0,0.14552 0.231098,0.26458 0.513551,0.26458 0.282453,0 0.587137,-0.11906 0.677074,-0.26458 0.08994,-0.14552 0.394621,-0.26459 0.677074,-0.26459 0.282453,0 0.513551,0.11907 0.513551,0.26459 0,0.14552 -0.246629,0.26458 -0.548066,0.26458 -0.301434,0 -0.718153,0.17009 -0.926042,0.37798 -0.43362,0.43362 -0.506362,1.20952 -0.113392,1.20952 0.145521,0 0.264583,0.11906 0.264583,0.26458 0,0.37246 -0.337799,0.31156 -0.727604,-0.13118 z m -2.116666,4.12701 c -0.472943,-0.41702 -0.859896,-0.9509 -0.859896,-1.1864 0,-0.2355 -0.119063,-0.42818 -0.264584,-0.42818 -0.14552,0 -0.264583,-0.23109 -0.264583,-0.51355 0,-0.28245 -0.119062,-0.58713 -0.264583,-0.67707 -0.145521,-0.0899 -0.264583,-0.45415 -0.264583,-0.80937 0,-0.35521 -0.119063,-0.64584 -0.264584,-0.64584 -0.145521,0 -0.264583,-0.52875 -0.264583,-1.17501 0,-1.36521 -0.352658,-1.71257 -1.075005,-1.05886 -0.40436,0.36594 -0.512495,0.81803 -0.512495,2.14259 0,0.92333 0.11104,1.67878 0.246753,1.67878 0.135715,0 0.322331,0.23813 0.414705,0.52917 0.09237,0.29104 0.338521,0.52916 0.546997,0.52916 0.244771,0 0.379045,0.28118 0.379045,0.79375 0,0.70556 0.08819,0.79375 0.79375,0.79375 0.436562,0 0.79375,0.11079 0.79375,0.24619 0,0.21354 0.520269,0.39492 1.455208,0.50731 0.145521,0.0175 -0.12237,-0.3094 -0.595312,-0.72642 z m 7.937499,-1.74254 c 0.400182,-0.35222 0.727604,-0.81479 0.727604,-1.02792 0,-0.21314 0.148828,-0.44067 0.330729,-0.50564 0.181901,-0.065 0.236017,-0.2192 0.120259,-0.34276 -0.115758,-0.12355 -0.441566,-0.0803 -0.724014,0.0961 -0.282448,0.17639 -0.693753,0.32071 -0.914008,0.32071 -0.220255,0 -0.400466,0.11907 -0.400466,0.26459 0,0.14552 -0.172992,0.26458 -0.384426,0.26458 -0.546939,0 -1.73224,0.57219 -1.73224,0.83622 0,0.12216 0.231097,0.22211 0.513551,0.22211 0.282453,0 0.587137,0.11907 0.677074,0.26459 0.274934,0.44485 1.020778,0.28091 1.785937,-0.39255 z m -10.914062,-5.95745 c 0.467342,-0.43656 1.134777,-0.79375 1.483191,-0.79375 0.348411,0 0.633476,-0.11906 0.633476,-0.26459 0,-0.14552 0.231097,-0.26458 0.513551,-0.26458 0.282453,0 0.587137,-0.11906 0.677074,-0.26458 0.08994,-0.14552 0.702199,-0.26459 1.36058,-0.26459 1.35338,0 1.476668,-0.46536 0.233103,-0.87988 -0.514723,-0.17157 -0.907719,-0.15581 -1.236644,0.0496 -0.265184,0.16561 -0.774396,0.30111 -1.131583,0.30111 -0.35719,0 -0.723019,0.11906 -0.812956,0.26458 -0.08994,0.14552 -0.339058,0.26458 -0.553601,0.26458 -0.514736,0 -2.224524,1.72179 -2.224524,2.24014 0,0.55362 0.08276,0.52327 1.058333,-0.38805 z m 7.14375,-3.175 c 0,-0.14552 -0.178594,-0.26459 -0.396875,-0.26459 -0.218281,0 -0.396875,0.11907 -0.396875,0.26459 0,0.14552 0.178594,0.26458 0.396875,0.26458 0.218281,0 0.396875,-0.11906 0.396875,-0.26458 z"
             id="path1569-3-8-4"
             sodipodi:nodetypes="csssssssssssccsssssssssscccccsssssssssssssssssssscsssssssssssssssssscccssssssssssssssssssscssssssssssssscscssssssssccsssssssssssssssssss" />
          <path
             style="display:inline;fill:#939a6b;stroke-width:0.264583"
             d="m -46.202182,164.61931 c -1.113367,-0.50905 -2.654328,-0.57153 -3.571875,-1.27821 0,-0.12093 -0.327422,-0.38882 -0.727604,-0.59531 -0.94147,-0.48579 -1.180023,-0.73614 -1.618369,-1.69835 -0.198879,-0.43657 -0.46677,-1.0005 -0.595313,-1.25318 -0.34927,-2.55873 -0.267814,-6.20259 2.478266,-7.41896 0.254662,-0.0961 0.463021,-0.28888 0.463021,-0.42831 1.273531,-1.18542 3.560857,-1.60949 5.027083,-1.61518 1.14699,0 2.159021,0.11906 2.248958,0.26458 1.413809,0.55436 4.209619,1.19549 4.365625,3.28286 0.30379,0.71412 0.385673,1.75893 0.79375,2.27339 0.149003,0 0.264583,0.74445 0.264583,1.70418 0,0.9373 -0.119062,1.77776 -0.264583,1.8677 -0.145521,0.0899 -0.264583,0.44156 -0.264583,0.78138 0,0.33983 -0.357188,1.00024 -0.79375,1.46758 -0.937204,1.77358 -1.893307,1.66724 -3.042709,2.38125 -0.08994,0.14552 -0.566187,0.26458 -1.058333,0.26458 -1.725394,0.34223 -2.559212,0.0146 -3.704167,0 z m 0.132291,-1.22573 c 0,-0.0921 -0.257214,-0.39049 -0.571584,-0.66314 -0.314373,-0.27266 -0.486492,-0.58083 -0.38249,-0.68483 0.104003,-0.10401 0.27192,-0.0733 0.373147,0.0682 0.10123,0.14154 0.511474,0.4261 0.911657,0.63236 0.400182,0.20626 0.727604,0.47396 0.727604,0.59489 0,0.12093 0.595312,0.21988 1.322916,0.21988 0.727604,0 1.322917,-0.09 1.322917,-0.2 0,-0.11 0.357187,-0.3581 0.79375,-0.55134 0.851119,-0.37674 1.058793,-0.83616 0.377976,-0.83616 -0.523685,0 -1.302332,-0.75613 -1.034709,-1.00479 0.110006,-0.10221 0.253164,-0.037 0.31813,0.14489 0.06496,0.1819 0.530325,0.33073 1.034137,0.33073 0.980815,0 2.214882,-0.95151 2.214882,-1.70777 0,-0.22489 0.119063,-0.4089 0.264584,-0.4089 0.14552,0 0.264583,-0.11906 0.264583,-0.26458 0,-0.14552 -0.238125,-0.26458 -0.529167,-0.26458 -0.291041,0 -0.529166,0.11906 -0.529166,0.26458 0,0.14552 -0.239742,0.26458 -0.532757,0.26458 -0.293016,0 -0.7395,0.10906 -0.992188,0.24234 -2.061231,1.08726 -3.030241,1.20872 -3.333726,0.41784 -0.104859,-0.27325 0.07694,-0.32251 0.773293,-0.20951 0.587845,0.0954 0.910378,0.0417 0.910378,-0.15146 0,-0.16458 0.409638,-0.29921 0.910426,-0.29921 0.500734,0 0.984012,-0.11906 1.073949,-0.26458 0.08994,-0.14552 0.3405,-0.26458 0.556807,-0.26458 0.216308,0 0.68553,-0.29225 1.042718,-0.64944 1.014918,-1.01491 0.841904,-2.45387 -0.475046,-3.95104 -0.254662,-0.28951 -0.463021,-0.6315 -0.463021,-0.75998 0,-0.4806 -1.534816,-1.51871 -2.245368,-1.51871 -0.220255,0 -0.400465,0.0989 -0.400465,0.21988 0,0.12093 -0.327422,0.38882 -0.727604,0.59531 -0.400183,0.20649 -0.884759,0.52408 -1.076836,0.70577 -0.192077,0.18168 -0.668327,0.40837 -1.058333,0.50376 -0.390007,0.0954 -0.807463,0.30392 -0.927682,0.46342 -0.155009,0.20565 -0.257609,0.1938 -0.352777,-0.0407 -0.07381,-0.1819 -0.362402,-0.33073 -0.641316,-0.33073 -1.100746,0 -0.418055,-0.47524 1.146527,-0.79813 1.956557,-0.40378 1.839995,-0.34064 1.631566,-0.88379 -0.123295,-0.32131 -0.504629,-0.43475 -1.461436,-0.43475 -0.712033,0 -1.294609,0.11906 -1.294609,0.26458 0,0.14553 -0.357187,0.26459 -0.79375,0.26459 -0.436562,0 -0.79375,0.11906 -0.79375,0.26458 0,0.14552 -0.218993,0.26458 -0.486653,0.26458 -0.568375,0 -2.15918,1.65176 -2.15918,2.24191 0,0.52952 0.236585,0.51062 0.762714,-0.0609 0.567944,-0.61694 1.837486,-1.2565 2.057488,-1.0365 0.09634,0.0963 -0.02254,0.39363 -0.264184,0.66064 -0.490747,0.54227 -0.622832,3.07731 -0.174768,3.35423 0.145521,0.0899 0.264583,0.39462 0.264583,0.67707 0,0.28246 -0.119062,0.51355 -0.264583,0.51355 -0.145521,0 -0.264583,-0.23109 -0.264583,-0.51355 0,-0.28245 -0.119063,-0.58713 -0.264584,-0.67707 -0.145521,-0.0899 -0.264583,-0.69228 -0.264583,-1.33853 0,-0.8918 -0.100214,-1.17501 -0.415774,-1.17501 -0.851302,0 -1.171726,0.70472 -1.171726,2.57704 0,1.45537 0.10627,1.93516 0.529167,2.38909 0.291041,0.3124 0.529166,0.70054 0.529166,0.86254 0,0.39954 0.67527,1.04794 1.10558,1.06159 0.192297,0.006 0.766347,0.23923 1.27567,0.51807 0.917099,0.50209 1.852083,0.68472 1.852083,0.36177 z m -2.645833,-3.42009 c 0,-0.22687 0.119063,-0.33891 0.264583,-0.24897 0.145521,0.0899 0.264584,0.27556 0.264584,0.41249 0,0.13693 -0.119063,0.24897 -0.264584,0.24897 -0.14552,0 -0.264583,-0.18562 -0.264583,-0.41249 z m 2.767245,-3.0447 c -0.252116,-0.40793 -0.08292,-0.48285 0.735402,-0.32565 0.398486,0.0765 0.659349,0.24463 0.579697,0.37351 -0.201716,0.32638 -1.104101,0.29354 -1.315099,-0.0479 z m 3.053588,-1.04073 c 0,-0.14552 0.238125,-0.26458 0.529167,-0.26458 0.291041,0 0.529166,0.11906 0.529166,0.26458 0,0.14552 -0.238125,0.26458 -0.529166,0.26458 -0.291042,0 -0.529167,-0.11906 -0.529167,-0.26458 z m 0,-4.23333 c 0,-0.14552 -0.238125,-0.26459 -0.529166,-0.26459 -0.291042,0 -0.529167,0.11907 -0.529167,0.26459 0,0.14552 0.238125,0.26458 0.529167,0.26458 0.291041,0 0.529166,-0.11906 0.529166,-0.26458 z"
             id="path1563-3-9-9"
             sodipodi:nodetypes="ccsscccccccscsccccssscssssssssssssssscsssssssssssssssssssssssssscscssscssssscssscsssccsccssssssssss" />
          <path
             style="display:inline;fill:#7a858c;stroke-width:0.264583"
             d="m -45.673016,164.70236 c -0.436562,-0.0681 -0.906859,-0.23368 -1.045104,-0.368 -0.138245,-0.13433 -0.467283,-0.24423 -0.731194,-0.24423 -0.263912,0 -0.716349,-0.11906 -1.005417,-0.26458 -0.289068,-0.14552 -0.733936,-0.36505 -0.988597,-0.48786 -1.721302,-0.83003 -2.447396,-1.4254 -2.447396,-2.00678 0,-0.22868 -0.119062,-0.41578 -0.264583,-0.41578 -0.145521,0 -0.264583,-0.23109 -0.264583,-0.51355 0,-0.28245 -0.119063,-0.58713 -0.264584,-0.67707 -0.14552,-0.0899 -0.264583,-1.06823 -0.264583,-2.17399 0,-1.93588 0.03873,-2.06066 1.043874,-3.36352 1.406493,-1.82307 3.435286,-3.32603 4.489704,-3.32603 0.245303,0 0.575368,-0.12936 0.733477,-0.28747 0.468488,-0.46849 5.903778,0.0664 5.903778,0.581 0,0.1296 0.168373,0.23563 0.37416,0.23563 0.654354,0 2.271673,1.78875 2.271673,2.51246 0,0.36835 0.137652,0.936 0.305893,1.26145 0.16824,0.32545 0.406365,0.79846 0.529166,1.05115 0.625954,1.28802 -0.237646,5.02179 -1.402858,6.06527 -0.269795,0.24161 -0.490534,0.55534 -0.490534,0.69718 0,0.36226 -1.207032,1.11249 -1.789859,1.11249 -0.267057,0 -0.598667,0.10892 -0.736912,0.24202 -0.309716,0.29822 -2.876574,0.53846 -3.955521,0.37021 z m -0.396875,-1.30879 c 0,-0.0921 -0.257214,-0.39049 -0.571584,-0.66314 -0.314373,-0.27266 -0.486492,-0.58083 -0.38249,-0.68483 0.104003,-0.10401 0.27192,-0.0733 0.373147,0.0682 0.10123,0.14154 0.511474,0.4261 0.911657,0.63236 0.400182,0.20626 0.727604,0.47396 0.727604,0.59489 0,0.12093 0.595312,0.21988 1.322916,0.21988 0.727604,0 1.322917,-0.09 1.322917,-0.2 0,-0.11 0.357187,-0.3581 0.79375,-0.55134 0.851119,-0.37674 1.058793,-0.83616 0.377976,-0.83616 -0.523685,0 -1.302332,-0.75613 -1.034709,-1.00479 0.110006,-0.10221 0.253164,-0.037 0.31813,0.14489 0.06496,0.1819 0.530325,0.33073 1.034137,0.33073 0.980815,0 2.214882,-0.95151 2.214882,-1.70777 0,-0.22489 0.119063,-0.4089 0.264584,-0.4089 0.14552,0 0.264583,-0.11906 0.264583,-0.26458 0,-0.14552 -0.238125,-0.26458 -0.529167,-0.26458 -0.291041,0 -0.529166,0.11906 -0.529166,0.26458 0,0.14552 -0.238125,0.26458 -0.529167,0.26458 -0.291042,0 -0.529167,-0.11906 -0.529167,-0.26458 0,-0.14552 0.190358,-0.26458 0.423014,-0.26458 0.232656,0 0.749019,-0.34899 1.147474,-0.77554 0.555389,-0.59455 0.696539,-0.96578 0.604813,-1.59074 -0.0658,-0.44836 -0.22498,-0.8803 -0.353724,-0.95987 -0.128741,-0.0796 -0.234077,-0.31487 -0.234077,-0.5229 0,-0.35129 -0.326488,-0.82607 -1.325745,-1.92792 -0.788741,-0.86973 -2.378421,-1.45945 -2.378421,-0.88232 0,0.12093 -0.327422,0.38882 -0.727604,0.59531 -0.400183,0.20649 -0.884759,0.52408 -1.076836,0.70577 -0.192077,0.18168 -0.668327,0.40837 -1.058333,0.50376 -0.390007,0.0954 -0.807463,0.30392 -0.927682,0.46342 -0.155009,0.20565 -0.257609,0.1938 -0.352777,-0.0407 -0.07381,-0.1819 -0.362402,-0.33073 -0.641316,-0.33073 -1.100746,0 -0.418055,-0.47524 1.146527,-0.79813 1.956557,-0.40378 1.839995,-0.34064 1.631566,-0.88379 -0.122912,-0.32031 -0.503496,-0.43475 -1.44582,-0.43475 -0.703448,0 -1.352579,0.11906 -1.442517,0.26458 -0.08994,0.14553 -0.454152,0.26459 -0.809365,0.26459 -0.355214,0 -0.645843,0.11906 -0.645843,0.26458 0,0.14552 -0.290925,0.26458 -0.646499,0.26458 -0.43775,0 -0.797898,0.2563 -1.11538,0.79375 -0.257884,0.43657 -0.562271,0.79375 -0.676418,0.79375 -0.340479,0 -0.234902,1.00147 0.123193,1.16858 0.264583,0.12347 0.264583,0.18521 0,0.30868 -0.219845,0.1026 -0.330729,0.79553 -0.330729,2.06678 0,1.54671 0.101195,2.02105 0.529167,2.48043 0.291041,0.3124 0.529166,0.70054 0.529166,0.86254 0,0.34963 0.658294,1.05049 0.986687,1.05049 0.398365,0 1.654921,0.65206 1.657083,0.8599 0.0011,0.10914 0.359251,0.19844 0.795813,0.19844 0.436563,0 0.79375,-0.0753 0.79375,-0.1674 z m 2.276838,-3.14981 c -0.563269,-0.56327 -0.565105,-0.56167 0.501287,-0.43717 0.56682,0.0662 0.926042,-0.006 0.926042,-0.18542 0,-0.16145 0.357187,-0.29354 0.79375,-0.29354 0.436562,0 0.79375,0.11907 0.79375,0.26459 0,0.14552 -0.214313,0.26458 -0.47625,0.26458 -0.261938,0 -0.58936,0.10568 -0.727604,0.23485 -0.537917,0.50258 -1.389013,0.57407 -1.810975,0.15211 z m -4.922671,-0.12238 c 0,-0.14552 0.119063,-0.26458 0.264583,-0.26458 0.145521,0 0.264584,0.11906 0.264584,0.26458 0,0.14553 -0.119063,0.26459 -0.264584,0.26459 -0.14552,0 -0.264583,-0.11906 -0.264583,-0.26459 z m -0.529166,-1.3073 c 0,-0.28245 -0.119063,-0.58713 -0.264584,-0.67707 -0.145521,-0.0899 -0.264583,-0.69228 -0.264583,-1.33853 0,-0.86807 -0.103674,-1.17501 -0.396875,-1.17501 -0.783204,0 -0.372703,-0.73479 0.727205,-1.30169 0.885597,-0.45644 1.238051,-0.20184 0.638188,0.461 -0.489501,0.54089 -0.637154,3.48652 -0.174768,3.48652 0.145521,0 0.264583,0.23813 0.264583,0.52917 0,0.29104 -0.119062,0.52916 -0.264583,0.52916 -0.145521,0 -0.264583,-0.23109 -0.264583,-0.51355 z m 3.296411,-1.8853 c -0.252116,-0.40793 -0.08292,-0.48285 0.735402,-0.32565 0.398486,0.0765 0.659349,0.24463 0.579697,0.37351 -0.201716,0.32638 -1.104101,0.29354 -1.315099,-0.0479 z m 3.053588,-1.04073 c 0,-0.14552 0.238125,-0.26458 0.529167,-0.26458 0.291041,0 0.529166,0.11906 0.529166,0.26458 0,0.14552 -0.238125,0.26458 -0.529166,0.26458 -0.291042,0 -0.529167,-0.11906 -0.529167,-0.26458 z m 0,-4.23333 c 0,-0.14552 -0.357187,-0.26459 -0.79375,-0.26459 -0.436562,0 -0.79375,-0.11906 -0.79375,-0.26458 0,-0.14552 -0.238125,-0.26458 -0.529166,-0.26458 -0.291042,0 -0.529167,0.11906 -0.529167,0.26458 0,0.14552 0.238125,0.26458 0.529167,0.26458 0.291041,0 0.529166,0.11907 0.529166,0.26459 0,0.14552 0.357188,0.26458 0.79375,0.26458 0.436563,0 0.79375,-0.11906 0.79375,-0.26458 z"
             id="path1561-4-5-2"
             sodipodi:nodetypes="cssscssscssssssssssssccssscssssssssssssssssssscsssssssssssssssssssssssscssscsssscssssssscssssssssccsccssssssssssssss" />
          <path
             style="display:inline;fill:#757985;stroke-width:0.264583"
             d="m -45.673016,164.70237 c -0.436562,-0.0681 -0.906859,-0.23368 -1.045104,-0.368 -0.138245,-0.13433 -0.51817,-0.24423 -0.84428,-0.24423 -0.326109,0 -0.666512,-0.11906 -0.756449,-0.26458 -0.08994,-0.14552 -0.33647,-0.26458 -0.547854,-0.26458 -0.668028,0 -3.014271,-1.69625 -3.019266,-2.18281 -0.0026,-0.25467 -0.09483,-0.46303 -0.204917,-0.46303 -0.375436,0 -0.858171,-2.10477 -0.858171,-3.7417 0,-1.49681 0.08728,-1.7465 1.043874,-2.98643 1.406493,-1.82307 3.435286,-3.32603 4.489704,-3.32603 0.245303,0 0.575368,-0.12936 0.733477,-0.28747 1.864549,-0.65027 8.321658,0.36212 8.549611,3.32909 0,0.36835 0.137652,0.936 0.305893,1.26145 0.16824,0.32545 0.406365,0.79846 0.529166,1.05115 0.625954,1.28802 -0.237646,5.02179 -1.402858,6.06527 -0.269795,0.24161 -0.490534,0.55534 -0.490534,0.69718 0,0.36226 -1.207032,1.11249 -1.789859,1.11249 -0.267057,0 -0.598667,0.10892 -0.736912,0.24202 -0.309716,0.29822 -2.876574,0.53846 -3.955521,0.37021 z m -0.396875,-1.38393 c 0,-0.13339 -0.148828,-0.29569 -0.330729,-0.36065 -0.181901,-0.065 -0.234958,-0.22027 -0.117906,-0.34511 0.117663,-0.1255 0.295119,-0.11212 0.396875,0.0299 0.394573,0.55079 1.419913,0.91838 2.561711,0.91838 0.656818,0 1.194216,-0.11906 1.194216,-0.26459 0,-0.14552 0.173368,-0.26458 0.385262,-0.26458 0.422339,0 2.983587,-2.47439 3.526306,-3.40672 0.391951,-0.67333 0.216744,-1.13582 -0.348168,-0.91904 -0.566187,0.21727 -0.475792,-0.10882 0.224226,-0.80884 0.47633,-0.47632 0.587619,-0.82683 0.500219,-1.57547 -0.06182,-0.52956 -0.218443,-0.96285 -0.348043,-0.96285 -0.129599,0 -0.235636,-0.17723 -0.235636,-0.39385 0,-0.36547 -0.319833,-0.83434 -1.325745,-1.94353 -0.809122,-0.8922 -2.378421,-1.45663 -2.378421,-0.85545 0,0.13572 -0.237421,0.32211 -0.5276,0.41421 -0.29018,0.0921 -0.681739,0.30849 -0.870128,0.48085 -0.539141,0.4933 -1.469773,0.97486 -1.883926,0.97486 -0.208129,0 -0.440959,0.14883 -0.5174,0.33073 -0.100256,0.23857 -0.218938,0.20477 -0.425921,-0.12131 -0.157813,-0.24861 -0.462381,-0.3847 -0.676815,-0.30242 -0.214431,0.0823 -0.389877,0.0178 -0.389877,-0.14328 0,-0.16109 0.409692,-0.29289 0.910426,-0.29289 0.500735,0 0.984012,-0.11906 1.073949,-0.26458 0.08994,-0.14552 0.462881,-0.26459 0.828765,-0.26459 0.490673,0 0.64217,-0.1215 0.577318,-0.46302 -0.06671,-0.35128 -0.39956,-0.48284 -1.37923,-0.54517 -0.710216,-0.0452 -1.417566,0.0441 -1.57189,0.19844 -0.154323,0.15432 -0.547404,0.28059 -0.873513,0.28059 -0.32611,0 -0.666512,0.11906 -0.756449,0.26458 -0.08994,0.14552 -0.38789,0.26458 -0.662115,0.26458 -0.274227,0 -0.709589,0.35719 -0.967473,0.79375 -0.257884,0.43657 -0.562271,0.79375 -0.676418,0.79375 -0.34182,0 -0.234182,1.00343 0.123193,1.14844 0.260726,0.10579 0.257741,0.18561 -0.0141,0.3771 -0.224745,0.15832 -0.350951,0.89442 -0.362426,2.11385 -0.01463,1.55549 0.07696,1.97245 0.543258,2.47296 0.308475,0.33111 0.560864,0.70713 0.560864,0.83561 0,0.35125 0.70803,0.98874 1.10558,0.99543 0.192296,0.003 0.647284,0.23871 1.011086,0.52328 0.676077,0.52884 2.116667,0.72392 2.116667,0.28663 z m 4.7625,-1.60955 c 0,-0.14552 0.119063,-0.26458 0.264583,-0.26458 0.145521,0 0.264584,0.11906 0.264584,0.26458 0,0.14553 -0.119063,0.26459 -0.264584,0.26459 -0.14552,0 -0.264583,-0.11906 -0.264583,-0.26459 z m -1.058333,-0.52916 c 0,-0.14552 0.119062,-0.26459 0.264583,-0.26459 0.145521,0 0.264583,0.11907 0.264583,0.26459 0,0.14552 -0.119062,0.26458 -0.264583,0.26458 -0.145521,0 -0.264583,-0.11906 -0.264583,-0.26458 z m -6.35,-1.05834 c 0,-0.14552 0.119063,-0.26458 0.264583,-0.26458 0.145521,0 0.264584,0.11906 0.264584,0.26458 0,0.14553 -0.119063,0.26459 -0.264584,0.26459 -0.14552,0 -0.264583,-0.11906 -0.264583,-0.26459 z m 4.7625,0 c 0,-0.14552 0.171566,-0.26458 0.381259,-0.26458 0.209693,0 0.454845,0.11906 0.544783,0.26458 0.08994,0.14553 -0.08163,0.26459 -0.38126,0.26459 -0.29963,0 -0.544782,-0.11906 -0.544782,-0.26459 z m 1.5875,-0.44269 c 0,-0.21367 0.310631,-0.35106 0.79375,-0.35106 0.436562,0 0.79375,0.10555 0.79375,0.23456 0,0.129 -0.357188,0.28698 -0.79375,0.35105 -0.541653,0.0795 -0.79375,0.005 -0.79375,-0.23455 z m -6.879166,-0.88022 c 0,-0.29104 0.119062,-0.52917 0.264583,-0.52917 0.145521,0 0.264583,0.23813 0.264583,0.52917 0,0.29104 -0.119062,0.52916 -0.264583,0.52916 -0.145521,0 -0.264583,-0.23812 -0.264583,-0.52916 z m 8.995832,0.26458 c 0,-0.14552 0.178594,-0.26458 0.396875,-0.26458 0.218282,0 0.396875,0.11906 0.396875,0.26458 0,0.14552 -0.178593,0.26458 -0.396875,0.26458 -0.218281,0 -0.396875,-0.11906 -0.396875,-0.26458 z m -9.524999,-2.38125 c 0,-0.79567 -0.105527,-1.05833 -0.425183,-1.05833 -0.279008,0 -0.369969,-0.14388 -0.264583,-0.41852 0.08833,-0.23018 0.160599,-0.4683 0.160599,-0.52916 0,-0.0609 0.228203,-0.11066 0.507119,-0.11066 0.278913,0 0.560271,-0.14882 0.625234,-0.33072 0.06497,-0.18191 0.203597,-0.25163 0.308071,-0.15496 0.10447,0.0967 0.06124,0.41627 -0.09607,0.71021 -0.15731,0.29394 -0.286019,1.07804 -0.286019,1.74246 0,0.66441 -0.119063,1.20801 -0.264584,1.20801 -0.145521,0 -0.264583,-0.47625 -0.264584,-1.05833 z m 3.96875,0.15706 c 0,-0.24114 0.185195,-0.32367 0.52619,-0.2345 0.289406,0.0757 0.460973,0.24313 0.381262,0.37211 -0.231021,0.3738 -0.907452,0.27122 -0.907452,-0.13761 z m 2.910416,-5.18414 c 0,-0.14552 -0.357187,-0.26459 -0.79375,-0.26459 -0.436562,0 -0.79375,-0.11906 -0.79375,-0.26458 0,-0.14552 -0.238125,-0.26458 -0.529166,-0.26458 -0.291042,0 -0.529167,0.11906 -0.529167,0.26458 0,0.14552 0.238125,0.26458 0.529167,0.26458 0.291041,0 0.529166,0.11907 0.529166,0.26459 0,0.14552 0.357188,0.26458 0.79375,0.26458 0.436563,0 0.79375,-0.11906 0.79375,-0.26458 z"
             id="path1559-0-3-4"
             sodipodi:nodetypes="csssssssssccsssssccccscsssssssssssscssscssssssssssssssssscsccssssssssssssssssssssssssssssssssssssssssscssssscsssssssssss" />
          <path
             style="display:inline;fill:#778959;stroke-width:0.264583"
             d="m -45.673016,164.70234 c -0.436562,-0.0681 -0.906859,-0.23368 -1.045104,-0.368 -0.138245,-0.13433 -0.51817,-0.24423 -0.84428,-0.24423 -0.326109,0 -0.666512,-0.11906 -0.756449,-0.26458 -0.08994,-0.14552 -0.33647,-0.26458 -0.547854,-0.26458 -0.668028,0 -3.014271,-1.69625 -3.019266,-2.18281 -0.0026,-0.25467 -0.123817,-0.46303 -0.269338,-0.46303 -0.145521,0 -0.264583,-0.29062 -0.264583,-0.64584 0,-0.35521 -0.119063,-0.71943 -0.264584,-0.80936 -0.14552,-0.0899 -0.264583,-1.0087 -0.264583,-2.0417 0,-1.78185 0.05354,-1.94757 1.043874,-3.23123 1.406493,-1.82307 3.435286,-3.32603 4.489704,-3.32603 0.245303,0 0.575368,-0.12936 0.733477,-0.28747 1.864549,-0.65027 8.321658,0.36212 8.549611,3.32909 0,0.36835 0.137652,0.936 0.305893,1.26145 0.16824,0.32545 0.406365,0.79846 0.529166,1.05115 0.625954,1.28802 -0.237646,5.02179 -1.402858,6.06527 -0.269795,0.24161 -0.490534,0.55534 -0.490534,0.69718 0,0.36226 -1.207032,1.11249 -1.789859,1.11249 -0.267057,0 -0.598667,0.10892 -0.736912,0.24202 -0.309716,0.29822 -2.876574,0.53846 -3.955521,0.37021 z m 3.568388,-1.48949 c 0.864825,-0.41188 3.214044,-2.76157 3.691398,-3.69215 0.288851,-0.56309 0.303643,-0.80528 0.06383,-1.0451 -0.239816,-0.23981 -0.312153,-0.23858 -0.312153,0.005 0,0.17462 -0.139816,0.3175 -0.310703,0.3175 -0.170889,0 -0.02684,-0.30216 0.320099,-0.67146 1.156906,-1.23147 0.622421,-3.07507 -1.540076,-5.31222 -0.706784,-0.73118 -1.962828,-1.13059 -2.11546,-0.67269 -0.05617,0.1685 -0.275773,0.30637 -0.488014,0.30637 -0.212238,0 -0.641485,0.23812 -0.953881,0.52916 -0.312399,0.29105 -0.724138,0.52917 -0.914979,0.52917 -0.190842,0 -0.346985,0.11906 -0.346985,0.26458 0,0.14553 -0.228203,0.26459 -0.507119,0.26459 -0.278913,0 -0.55662,0.14851 -0.617125,0.33002 -0.0678,0.2034 -0.232108,0.10188 -0.428233,-0.26458 -0.290076,-0.54201 -0.260271,-0.59461 0.336928,-0.59461 0.360333,0 0.728736,-0.11906 0.818674,-0.26458 0.08994,-0.14552 0.462174,-0.26459 0.827193,-0.26459 0.543269,0 0.633203,-0.096 0.495723,-0.52916 -0.138181,-0.43537 -0.04754,-0.52917 0.511337,-0.52917 0.37361,0 0.679288,-0.11906 0.679288,-0.26458 0,-0.14552 -0.290629,-0.26459 -0.645842,-0.26459 -0.355214,0 -0.719429,-0.11906 -0.809366,-0.26458 -0.08994,-0.14552 -0.394621,-0.26458 -0.677074,-0.26458 -0.282453,0 -0.513551,0.11906 -0.513551,0.26458 0,0.14552 0.238125,0.26458 0.529167,0.26458 0.291041,0 0.529166,0.11907 0.529166,0.26459 0,0.14552 -0.506015,0.26638 -1.124479,0.26857 -1.074073,0.004 -2.895965,0.48868 -3.280304,0.87302 -0.09973,0.0997 -0.392877,0.18132 -0.651438,0.18132 -0.258562,0 -0.681107,0.35719 -0.938991,0.79375 -0.257884,0.43657 -0.562271,0.79375 -0.676418,0.79375 -0.340479,0 -0.234902,1.00147 0.123193,1.16858 0.264583,0.12347 0.264583,0.18521 0,0.30868 -0.181901,0.0849 -0.330729,0.4499 -0.330729,0.81114 0,0.36125 -0.136136,0.91118 -0.302525,1.22208 -0.226975,0.42411 -0.226975,0.59046 0,0.66611 0.166389,0.0555 0.302525,0.44811 0.302525,0.87255 0,0.42443 0.119062,0.7717 0.264583,0.7717 0.145521,0 0.264729,0.14883 0.264906,0.33073 5.3e-4,0.45377 1.176848,1.78593 1.577118,1.78593 0.178885,0 0.646496,0.22876 1.039135,0.50834 1.081678,0.77022 4.669015,0.88874 6.111187,0.2019 z m -4.494429,-0.44565 c 0,-0.14552 0.119062,-0.26459 0.264583,-0.26459 0.145521,0 0.264583,0.11907 0.264583,0.26459 0,0.14552 -0.119062,0.26458 -0.264583,0.26458 -0.145521,0 -0.264583,-0.11906 -0.264583,-0.26458 z m -2.116667,-2.64584 c 0,-0.14552 0.119063,-0.26458 0.264583,-0.26458 0.145521,0 0.264584,0.11906 0.264584,0.26458 0,0.14553 -0.119063,0.26459 -0.264584,0.26459 -0.14552,0 -0.264583,-0.11906 -0.264583,-0.26459 z m 4.894792,0 c -0.08994,-0.14552 -0.03743,-0.26458 0.116676,-0.26458 0.154109,0 0.280199,0.11906 0.280199,0.26458 0,0.14553 -0.0525,0.26459 -0.116676,0.26459 -0.06417,0 -0.190262,-0.11906 -0.280199,-0.26459 z m 1.587499,-0.52916 c 0.08994,-0.14552 0.454152,-0.26459 0.809366,-0.26459 0.355214,0 0.645843,0.11907 0.645843,0.26459 0,0.14552 -0.364215,0.26458 -0.809366,0.26458 -0.472202,0 -0.741246,-0.11022 -0.645843,-0.26458 z m -6.818531,-0.42444 c -0.106111,-0.10611 -0.192926,-0.37548 -0.192926,-0.59862 0,-0.29781 0.07827,-0.32742 0.294348,-0.11134 0.161891,0.16189 0.248709,0.43127 0.192927,0.59862 -0.05579,0.16735 -0.188241,0.21745 -0.294349,0.11134 z m 8.802906,-0.10473 c 0,-0.14552 0.119063,-0.26458 0.264584,-0.26458 0.145521,0 0.264583,0.11906 0.264583,0.26458 0,0.14552 -0.119062,0.26458 -0.264583,0.26458 -0.145521,0 -0.264584,-0.11906 -0.264584,-0.26458 z m -9.524999,-2.38125 c 0,-0.58208 -0.119063,-1.05833 -0.264583,-1.05833 -0.145521,0 -0.264584,-0.23813 -0.264584,-0.52917 0,-0.29104 0.168857,-0.52917 0.375235,-0.52917 0.20638,0 0.533802,-0.04 0.727604,-0.0889 0.193805,-0.0489 0.263073,-0.039 0.153932,0.022 -0.109141,0.061 -0.198437,0.81543 -0.198437,1.67642 0,0.86725 -0.118007,1.56546 -0.264584,1.56546 -0.145521,0 -0.264583,-0.47625 -0.264583,-1.05834 z m 4.101041,0.26458 c -0.08994,-0.14552 0.02209,-0.26458 0.248968,-0.26458 0.22687,0 0.412491,0.11906 0.412491,0.26458 0,0.14553 -0.112036,0.26459 -0.248968,0.26459 -0.136932,0 -0.322554,-0.11906 -0.412491,-0.26459 z m -1.984375,-3.175 c 0,-0.14552 0.119063,-0.26458 0.264584,-0.26458 0.145521,0 0.264583,0.11906 0.264583,0.26458 0,0.14553 -0.119062,0.26459 -0.264583,0.26459 -0.145521,0 -0.264584,-0.11906 -0.264584,-0.26459 z"
             id="path1555-0-7-8"
             sodipodi:nodetypes="cssssssscsssccssssscccssssssssssssssssssssssssssccssssssscsscssccsssssssssssssssssssssssssssssscsssssssccssssssssss" />
          <path
             style="display:inline;fill:#646754;stroke-width:0.264583"
             d="m -46.599057,164.37379 c 0,-0.15622 -0.357188,-0.28403 -0.79375,-0.28403 -0.436563,0 -0.79375,-0.10418 -0.79375,-0.23151 0,-0.12733 -0.342837,-0.30007 -0.761857,-0.38388 -0.419024,-0.0838 -0.925039,-0.30704 -1.124479,-0.49609 -0.199443,-0.18905 -0.690044,-0.51267 -1.090227,-0.71916 -0.400182,-0.20649 -0.727604,-0.59345 -0.727604,-0.8599 0,-0.26645 -0.119062,-0.48446 -0.264583,-0.48446 -0.145521,0 -0.264583,-0.29062 -0.264583,-0.64584 0,-0.35521 -0.119063,-0.71943 -0.264584,-0.80936 -0.378669,-0.23403 -0.327355,-3.46729 0.06615,-4.16793 0.578903,-1.03076 3.247784,-3.55428 4.187232,-3.95919 2.295004,-0.98916 5.018347,-1.36029 5.403914,-0.73643 0.08994,0.14553 0.500073,0.26459 0.911412,0.26459 1.668047,0 3.853887,1.81452 4.057534,3.36825 0.0719,0.54855 0.328139,1.6884 0.569423,2.53298 0.368339,1.28932 0.385683,1.69245 0.108132,2.51354 -0.181813,0.53787 -0.425325,1.09105 -0.541139,1.22929 -0.115813,0.13825 -0.210571,0.48147 -0.210571,0.76271 0,0.28125 -0.216622,0.70393 -0.481386,0.93928 -0.264763,0.23535 -0.558681,0.63627 -0.653155,0.89093 -0.09447,0.25466 -0.354097,0.46302 -0.576948,0.46302 -0.222848,0 -0.405178,0.10604 -0.405178,0.23563 0,0.31209 -1.491501,0.57426 -4.167187,0.7325 -1.458587,0.0862 -2.182812,0.0348 -2.182812,-0.15494 z m 4.497916,-1.16129 c 1.007613,-0.47735 3.666204,-3.24498 3.860406,-4.01874 0.174479,-0.69518 -0.130106,-1.33314 -0.346803,-0.72639 -0.06496,0.1819 -0.250613,0.33073 -0.412554,0.33073 -0.161941,0 0.115872,-0.43193 0.61736,-0.95985 0.590452,-0.62157 0.79524,-1.00233 0.58107,-1.08039 -0.181901,-0.0663 -0.330729,-0.34511 -0.330729,-0.6196 0,-1.33853 -2.474039,-4.21933 -3.62358,-4.21933 -0.335364,0 -0.609753,0.11906 -0.609753,0.26458 0,0.14553 -0.183573,0.26459 -0.407937,0.26459 -0.224367,0 -0.663536,0.23812 -0.975932,0.52916 -0.312399,0.29105 -0.724138,0.52917 -0.914979,0.52917 -0.190842,0 -0.346985,0.11906 -0.346985,0.26458 0,0.14553 -0.238125,0.26459 -0.529167,0.26459 -0.291042,0 -0.529167,0.12609 -0.529167,0.2802 0,0.15411 -0.119062,0.20661 -0.264583,0.11667 -0.606925,-0.3751 -0.182084,-0.85285 1.058913,-1.19078 0.937201,-0.25521 1.30402,-0.48154 1.256771,-0.77543 -0.04108,-0.25554 0.162052,-0.44753 0.528587,-0.49958 0.728125,-0.10341 0.795231,-0.57692 0.08176,-0.57692 -0.282453,0 -0.587137,-0.11906 -0.677074,-0.26458 -0.08994,-0.14552 -0.454152,-0.26458 -0.809365,-0.26458 -0.355214,0 -0.645843,0.11906 -0.645843,0.26458 0,0.14552 0.245152,0.26458 0.544782,0.26458 0.29963,0 0.48123,0.10283 0.403559,0.22851 -0.07767,0.12568 -0.627737,0.2285 -1.222365,0.2285 -0.97632,0 -1.530048,0.16756 -2.963531,0.89678 -0.252688,0.12854 -0.669407,0.23393 -0.926042,0.23419 -0.262564,2.6e-4 -0.784788,0.50413 -1.194215,1.15222 -0.837719,1.32605 -0.874726,1.49314 -0.330729,1.49314 0.218281,0 0.396875,0.11906 0.396875,0.26458 0,0.14552 -0.119063,0.26458 -0.264584,0.26458 -0.145521,0 -0.264583,0.30549 -0.264583,0.67886 0,0.37337 -0.136136,0.93322 -0.302525,1.24412 -0.226975,0.42411 -0.226975,0.59046 0,0.66611 0.166389,0.0555 0.302525,0.44811 0.302525,0.87255 0,0.42443 0.119062,0.7717 0.264583,0.7717 0.145521,0 0.264729,0.14883 0.264906,0.33073 5.3e-4,0.43699 1.170255,1.78593 1.548792,1.78593 0.163306,0 0.538416,0.20836 0.833577,0.46303 0.905283,0.78106 4.893834,0.93637 6.348559,0.24721 z m -4.497916,-0.44565 c 0,-0.14552 0.119062,-0.26459 0.264583,-0.26459 0.145521,0 0.264583,0.11907 0.264583,0.26459 0,0.14552 -0.119062,0.26458 -0.264583,0.26458 -0.145521,0 -0.264583,-0.11906 -0.264583,-0.26458 z m -2.116667,-2.64584 c 0,-0.14552 0.119063,-0.26458 0.264583,-0.26458 0.145521,0 0.264584,0.11906 0.264584,0.26458 0,0.14553 -0.119063,0.26459 -0.264584,0.26459 -0.14552,0 -0.264583,-0.11906 -0.264583,-0.26459 z m 4.894792,0 c -0.08994,-0.14552 -0.03743,-0.26458 0.116676,-0.26458 0.154109,0 0.280199,0.11906 0.280199,0.26458 0,0.14553 -0.0525,0.26459 -0.116676,0.26459 -0.06417,0 -0.190262,-0.11906 -0.280199,-0.26459 z m 1.719791,-0.52916 c 0.520036,-0.33608 1.322917,-0.33608 1.322917,0 0,0.14552 -0.386953,0.26276 -0.859896,0.26053 -0.652521,-0.003 -0.764185,-0.0659 -0.463021,-0.26053 z m -6.950823,-0.42444 c -0.106111,-0.10611 -0.192926,-0.37548 -0.192926,-0.59862 0,-0.29781 0.07827,-0.32742 0.294348,-0.11134 0.161891,0.16189 0.248709,0.43127 0.192927,0.59862 -0.05579,0.16735 -0.188241,0.21745 -0.294349,0.11134 z m 8.802906,-0.10473 c 0,-0.14552 0.119063,-0.26458 0.264584,-0.26458 0.145521,0 0.264583,0.11906 0.264583,0.26458 0,0.14552 -0.119062,0.26458 -0.264583,0.26458 -0.145521,0 -0.264584,-0.11906 -0.264584,-0.26458 z m -9.524999,-2.38125 c 0,-0.58208 -0.119063,-1.05833 -0.264583,-1.05833 -0.145521,0 -0.264584,-0.23813 -0.264584,-0.52917 0,-0.29104 0.168857,-0.52917 0.375235,-0.52917 0.20638,0 0.533802,-0.04 0.727604,-0.0889 0.193805,-0.0489 0.263073,-0.039 0.153932,0.022 -0.109141,0.061 -0.198437,0.81543 -0.198437,1.67642 0,0.86725 -0.118007,1.56546 -0.264584,1.56546 -0.145521,0 -0.264583,-0.47625 -0.264583,-1.05834 z m 4.233333,0.26458 c 0,-0.14552 0.119062,-0.26458 0.264583,-0.26458 0.145521,0 0.264584,0.11906 0.264584,0.26458 0,0.14553 -0.119063,0.26459 -0.264584,0.26459 -0.145521,0 -0.264583,-0.11906 -0.264583,-0.26459 z m -2.116667,-3.175 c 0,-0.14552 0.119063,-0.26458 0.264584,-0.26458 0.145521,0 0.264583,0.11906 0.264583,0.26458 0,0.14553 -0.119062,0.26459 -0.264583,0.26459 -0.145521,0 -0.264584,-0.11906 -0.264584,-0.26459 z"
             id="path1553-40-3-6"
             sodipodi:nodetypes="ssssssssssssssssssssssscsssssssssssssssssssssssssssssssssssscsscscsssssssssssssssssscssssssssssscsssssssccssssssssss" />
          <path
             style="display:inline;fill:#5a5a27;stroke-width:0.264583"
             d="m -46.334474,164.37256 c -0.218281,-0.15087 -0.724297,-0.27614 -1.124479,-0.27836 -0.400182,-0.002 -0.727604,-0.12312 -0.727604,-0.26864 0,-0.14552 -0.180211,-0.26458 -0.400466,-0.26458 -1.069228,0 -3.498693,-2.23174 -3.73935,-3.43502 -0.08782,-0.43907 -0.263843,-0.79832 -0.391174,-0.79832 -0.12733,0 -0.23151,-0.83343 -0.23151,-1.85208 0,-1.05833 0.113393,-1.85208 0.264583,-1.85208 0.145521,0 0.264584,-0.18118 0.264584,-0.40263 0,-0.57891 2.673977,-3.17016 3.935489,-3.81374 0.588782,-0.30037 1.349099,-0.54613 1.689594,-0.54613 0.340495,0 0.751004,-0.13192 0.912244,-0.29316 0.683062,-0.68306 5.280617,0.42097 6.158619,1.4789 0.183388,0.22097 0.454554,0.40176 0.602593,0.40176 0.476698,0 0.971894,0.90194 0.980546,1.78594 0.0046,0.47294 -0.110649,0.85989 -0.256169,0.85989 -0.145521,0 -0.264584,-0.19426 -0.264584,-0.43169 0,-0.23743 -0.506015,-0.92204 -1.124479,-1.52135 -1.706303,-1.65348 -6.283854,-3.02066 -6.283854,-1.8768 0,0.23727 -0.329252,0.46934 -0.799256,0.56334 -0.439589,0.0879 -0.863335,0.26353 -0.941657,0.39026 -0.07832,0.12672 -0.43303,0.23041 -0.788244,0.23041 -0.355214,0 -0.645842,0.11906 -0.645842,0.26458 0,0.14552 -0.194506,0.26458 -0.432237,0.26458 -0.472392,0 -1.683589,1.26858 -1.684107,1.76389 -1.78e-4,0.16978 -0.149151,0.36258 -0.331052,0.42845 -0.261678,0.0948 -0.263356,0.23404 -0.008,0.66706 0.240922,0.4086 0.249965,0.75593 0.03569,1.3706 -0.323279,0.92735 -0.175977,1.97045 0.479835,3.3979 0.5496,1.19627 1.029078,1.68394 2.138333,2.17487 0.472943,0.20932 0.859896,0.47057 0.859896,0.58057 0,0.11 0.409691,0.2 0.910426,0.2 0.500734,0 0.984012,0.11906 1.073949,0.26458 0.189203,0.30614 1.190564,0.36177 1.190752,0.0661 6.9e-5,-0.10914 0.651687,-0.22661 1.448038,-0.26104 0.914281,-0.0395 1.657723,-0.23455 2.017191,-0.52916 1.729221,-1.41725 2.88463,-2.57421 2.88463,-2.88852 0,-0.1959 0.119063,-0.35618 0.264584,-0.35618 0.14552,0 0.264583,-0.47625 0.264583,-1.05833 0,-0.74509 0.112845,-1.05834 0.381259,-1.05834 0.588732,0 0.687541,0.37027 0.360334,1.3503 -1.087171,3.25619 -2.33348,4.82265 -4.052303,5.09323 -2.345581,0.36925 -4.509518,0.45282 -4.891373,0.18889 z m 8.342635,-8.03286 c -0.113258,-0.26094 -0.131683,-0.54867 -0.04095,-0.63941 0.268682,-0.26868 0.48527,0.10873 0.361606,0.63011 -0.10963,0.46222 -0.123894,0.46263 -0.320659,0.009 z m -11.782218,-0.71619 c 0,-0.29104 -0.12609,-0.52917 -0.280199,-0.52917 -0.154109,0 -0.206613,-0.11906 -0.116676,-0.26458 0.358606,-0.58024 0.926042,-0.25599 0.926042,0.52916 0,0.43657 -0.119063,0.79375 -0.264584,0.79375 -0.145521,0 -0.264583,-0.23812 -0.264583,-0.52916 z m 3.175,-1.85209 c 0,-0.14552 0.304683,-0.26458 0.677074,-0.26458 0.384005,0 0.606292,0.11452 0.513551,0.26458 -0.08994,0.14553 -0.394621,0.26459 -0.677074,0.26459 -0.282454,0 -0.513551,-0.11906 -0.513551,-0.26459 z m 2.645833,-1.4552 c 0,-0.24254 0.127992,-0.39831 0.284427,-0.34617 0.156435,0.0522 0.284427,0.20792 0.284427,0.34617 0,0.13824 -0.127992,0.29401 -0.284427,0.34616 -0.156435,0.0521 -0.284427,-0.10363 -0.284427,-0.34616 z m 1.058333,-0.1323 c 0,-0.14552 0.119063,-0.26458 0.264584,-0.26458 0.14552,0 0.264583,0.11906 0.264583,0.26458 0,0.14553 -0.119063,0.26459 -0.264583,0.26459 -0.145521,0 -0.264584,-0.11906 -0.264584,-0.26459 z"
             id="path1547-8-7-1"
             sodipodi:nodetypes="ccsssssssssssscssssssssssccsssssssccsssssscccssccsssssssssssscscssssss" />
          <path
             style="display:inline;fill:#36461e;stroke-width:0.264583"
             d="m -46.202182,164.35508 c -0.08994,-0.14552 -0.442061,-0.26459 -0.782498,-0.26459 -0.677589,0 -3.132044,-1.20989 -4.077075,-2.00974 -0.32738,-0.27709 -0.776899,-0.92052 -0.998929,-1.42984 -0.22203,-0.50932 -0.512744,-1.13278 -0.646033,-1.38547 -0.317839,-0.60257 -0.314156,-3.64161 0.0044,-3.64161 0.135715,0 0.326221,-0.25038 0.423347,-0.5564 0.224083,-0.70602 2.701041,-3.14777 3.19316,-3.14777 0.203539,0 0.370073,-0.11906 0.370073,-0.26458 0,-0.14552 0.180211,-0.26459 0.400466,-0.26459 0.220255,0 0.621201,-0.13785 0.890992,-0.30634 0.297598,-0.18585 0.686427,-0.21957 0.988597,-0.0857 0.461724,0.20451 0.454628,0.2282 -0.09724,0.32475 -0.327422,0.0573 -0.595313,0.20048 -0.595313,0.31822 0,0.11775 -0.386953,0.35961 -0.859896,0.53747 -2.162508,0.81326 -3.373437,1.71314 -3.373437,2.50691 0,0.2249 -0.119063,0.4089 -0.264583,0.4089 -0.145521,0 -0.264584,0.23813 -0.264584,0.52917 0,0.29104 0.142875,0.52916 0.3175,0.52916 0.246944,0 0.246944,0.0706 0,0.3175 -0.474482,0.47449 -0.383762,2.14827 0.199658,3.68371 0.576799,1.51801 1.06346,2.0673 2.327113,2.62656 0.472943,0.20932 0.859896,0.47057 0.859896,0.58057 0,0.11 0.259437,0.2 0.576527,0.2 0.31709,0 0.978437,0.14533 1.46966,0.32296 0.736658,0.26638 0.933423,0.25777 1.123098,-0.0491 0.184118,-0.29791 0.308416,-0.30699 0.623453,-0.0455 0.266584,0.22124 0.448781,0.23709 0.564946,0.0491 0.0943,-0.15259 0.581155,-0.27743 1.08189,-0.27743 0.500734,0 0.910425,-0.099 0.910425,-0.21988 0,-0.12093 0.320062,-0.38882 0.711245,-0.59531 1.595882,-0.8424 2.992922,-2.73488 2.992922,-4.0543 0,-0.52324 0.119062,-0.95135 0.264583,-0.95135 0.145521,0 0.264584,0.59532 0.264584,1.32292 0,0.72761 -0.119063,1.32292 -0.264584,1.32292 -0.145521,0 -0.264583,0.18021 -0.264583,0.40046 0,1.01502 -1.749089,2.95528 -2.875153,3.18939 -0.383196,0.0797 -1.19593,0.25705 -1.806072,0.39417 -1.451216,0.32614 -3.182382,0.31834 -3.388566,-0.0153 z m -3.571875,-8.73134 c 0,-0.29104 -0.0089,-0.61549 -0.01984,-0.72099 -0.01093,-0.1055 0.100394,-0.2319 0.247351,-0.28089 0.146958,-0.049 0.256831,0.27546 0.244163,0.72099 -0.02505,0.88084 -0.47167,1.14681 -0.47167,0.28089 z m 11.238891,-0.92604 c -0.121047,-0.29105 -0.29105,-0.5887 -0.377788,-0.66146 -0.08674,-0.0728 -0.366056,-0.45972 -0.62071,-0.8599 -0.254656,-0.40018 -0.58783,-0.7276 -0.740391,-0.7276 -0.152562,0 -0.455798,-0.17842 -0.673862,-0.39648 -0.218062,-0.21806 -0.715574,-0.46338 -1.10558,-0.54515 -0.390007,-0.0818 -0.915845,-0.26054 -1.168533,-0.39727 -0.252687,-0.13673 -1.026593,-0.25666 -1.719791,-0.26651 -1.10395,-0.0157 -1.186241,-0.0536 -0.663107,-0.30588 0.434761,-0.20963 0.875017,-0.20476 1.618197,0.0179 0.561517,0.16824 1.327523,0.30588 1.702234,0.30588 0.374711,0 0.754877,0.11907 0.844814,0.26459 0.08994,0.14552 0.368335,0.26458 0.618665,0.26458 0.250328,0 0.626771,0.23812 0.836544,0.52917 0.209772,0.29104 0.539787,0.52916 0.733369,0.52916 0.423101,0 1.190789,1.72516 1.041768,2.34107 -0.08976,0.37097 -0.139023,0.35705 -0.325829,-0.0921 z m -7.9316,-0.92605 c 0.08994,-0.14552 0.364855,-0.26276 0.610929,-0.26053 0.385569,0.003 0.392554,0.0395 0.05053,0.26053 -0.518152,0.33486 -0.86841,0.33486 -0.661459,0 z m 2.513542,-1.45543 c 0,-0.21828 0.119062,-0.39688 0.264583,-0.39688 0.145521,0 0.264584,0.1786 0.264584,0.39688 0,0.21828 -0.119063,0.39687 -0.264584,0.39687 -0.145521,0 -0.264583,-0.17859 -0.264583,-0.39687 z m 1.058333,-0.1323 c 0,-0.14552 0.12609,-0.26458 0.280199,-0.26458 0.154109,0 0.206613,0.11906 0.116676,0.26458 -0.08994,0.14553 -0.216027,0.26459 -0.280199,0.26459 -0.06417,0 -0.116676,-0.11906 -0.116676,-0.26459 z"
             id="path1545-5-9-3"
             sodipodi:nodetypes="csssssssssscssssssscsssssscssssssssscsccssssssscssscsscssssssssscssssssssssss" />
          <path
             id="path1543-3-5-9"
             style="display:inline;fill:#53280a;stroke-width:0.999999"
             d="m 232.4082,241.84766 c -0.0673,0.004 -0.14094,0.0135 -0.2207,0.0254 -0.95707,0.14264 -2.77295,0.85216 -4.53516,1.69336 -0.8811,0.4206 -1.74965,0.87261 -2.49023,1.30468 -0.24686,0.14403 -0.47899,0.28659 -0.69336,0.42383 -0.21437,0.13724 -0.41055,0.27005 -0.58398,0.39649 -0.17344,0.12643 -0.32321,0.24583 -0.44727,0.35742 -0.24813,0.22318 -0.39063,0.41308 -0.39062,0.55273 0,0.0824 0.005,0.15814 0.0117,0.22852 0.0139,0.14155 0.0429,0.25688 0.0937,0.34765 0.0127,0.0226 0.0256,0.0432 0.041,0.0625 0.32261,0.40798 1.2708,0.091 3.67969,-1.16015 0.45836,-0.23807 0.9691,-0.50927 1.53906,-0.81641 1.32355,-0.71322 2.30105,-1.23785 3.01367,-1.63281 0.53446,-0.29622 0.92008,-0.52082 1.18945,-0.69727 0.17959,-0.11762 0.30782,-0.21367 0.39454,-0.29687 0.30349,-0.29121 0.0987,-0.41691 -0.18555,-0.70117 -0.0473,-0.0473 -0.12677,-0.0762 -0.23438,-0.0859 -0.0538,-0.005 -0.11433,-0.006 -0.18164,-0.002 z m 15.74024,0.0801 c -0.27491,6e-4 -0.5073,0.0289 -0.68555,0.0859 -0.0891,0.0285 -0.16493,0.0641 -0.22656,0.10742 -0.12327,0.0866 -0.18946,0.20324 -0.18945,0.35157 0,0.52543 1.10606,0.96124 2.51171,1.01367 0.0937,0.003 0.18903,0.006 0.28516,0.006 0.11829,0 0.23906,0.003 0.36133,0.0117 1.1004,0.078 2.35466,0.50298 3.63867,1.17773 0.28534,0.14995 0.57249,0.31069 0.85937,0.48438 0.43035,0.26052 0.86095,0.54737 1.28711,0.85546 0.28412,0.2054 0.56686,0.42061 0.84571,0.64454 1.39421,1.11964 2.70401,2.45792 3.76172,3.88476 0.10577,0.14269 0.21002,0.28536 0.31054,0.42969 0.40248,0.57771 0.7616,1.16814 1.06641,1.76172 1.35798,2.64452 1.87803,3.24556 2.02539,1.98828 0.0114,-0.0965 0.0202,-0.20384 0.0273,-0.32227 0.0143,-0.23685 0.0195,-0.51643 0.0195,-0.83984 0,-0.0695 -0.004,-0.14138 -0.0137,-0.2168 -0.009,-0.0748 -0.0224,-0.1522 -0.041,-0.23242 -0.11185,-0.48167 -0.38464,-1.0569 -0.7793,-1.68555 -0.0657,-0.10468 -0.13477,-0.20901 -0.20703,-0.3164 -1.5175,-2.25523 -4.44189,-5.06444 -7.07227,-6.60938 -0.25051,-0.14713 -0.49846,-0.2836 -0.74218,-0.40625 -0.97888,-0.49258 -1.9768,-0.91406 -2.92383,-1.25195 -0.47352,-0.16895 -0.93411,-0.31646 -1.37305,-0.44141 -1.09736,-0.31236 -2.05883,-0.48194 -2.74609,-0.48047 z m -26.98242,5.56446 c -0.55001,0 -1.27922,0.45 -1.61914,1 -0.0425,0.0687 -0.0768,0.13428 -0.10352,0.19922 0,0 0,0.002 0,0.002 -0.0264,0.0643 -0.0452,0.12635 -0.0566,0.18555 -0.0469,0.23985 0.0264,0.4314 0.20312,0.5332 0.0441,0.0254 0.0957,0.0452 0.15235,0.0586 0.0567,0.0134 0.11875,0.0215 0.1875,0.0215 0.0687,0 0.13968,-0.008 0.21289,-0.0215 0.29284,-0.0535 0.61296,-0.20898 0.88867,-0.42187 0.0693,-0.0535 0.13463,-0.10979 0.19727,-0.16992 0.0619,-0.0595 0.12061,-0.12097 0.17382,-0.18555 0,0 0,-0.002 0,-0.002 0.0531,-0.0646 0.10232,-0.13091 0.14454,-0.19922 0.14923,-0.24149 0.20083,-0.46342 0.16406,-0.63672 -0.005,-0.0247 -0.0109,-0.0477 -0.0195,-0.0703 -0.0692,-0.18125 -0.2504,-0.29297 -0.52539,-0.29297 z m -6.89844,7 c -1.33713,0 -5.22071,7.51623 -5.2207,10.10547 0,3.51968 2.34746,12.89453 3.22851,12.89453 0.0854,0 0.16678,0.0284 0.24414,0.0703 0.15771,0.28813 0.32028,0.54454 0.48438,0.77344 0.0294,0.12916 0.0551,0.26205 0.0566,0.40625 0.007,0.68749 1.01988,2.4786 2.25,3.98047 1.52743,1.86484 2.78981,2.86449 3.3789,2.76757 0.0256,-0.004 0.0512,-0.0111 0.0742,-0.0195 0.18428,-0.067 0.2832,-0.26648 0.28321,-0.61132 -1e-5,-0.34799 -0.8076,-1.3605 -1.79688,-2.25 -0.83989,-0.7552 -1.6184,-2.00561 -2.28516,-3.50977 0.003,-0.008 0.005,-0.0151 0.008,-0.0234 0.0483,-0.15234 0.0742,-0.34576 0.0742,-0.58398 -1e-5,-0.44623 -0.29764,-0.82351 -0.70313,-0.95117 -1.24343,-3.51985 -1.87376,-7.89063 -1.31445,-10.94922 0.43083,-2.35601 0.57035,-5.09636 0.31054,-6.08985 -0.2598,-0.99345 0.0335,-2.75197 0.65235,-3.9082 0.61878,-1.15623 0.74347,-2.10156 0.27539,-2.10156 z m 7.7793,0.99804 c -0.0344,0 -0.0681,0.002 -0.10157,0.006 -0.50262,0.0515 -0.89843,0.48048 -0.89843,0.9961 0,0.0344 0.002,0.0681 0.006,0.10156 0.0515,0.50262 0.47852,0.89844 0.99415,0.89844 0.54999,0 1,-0.45001 1,-1 0,-0.51562 -0.39386,-0.94464 -0.89649,-0.9961 -0.0335,-0.003 -0.0691,-0.006 -0.10351,-0.006 z m 44.3789,12.39063 c -0.12148,-0.004 -0.25479,0.0347 -0.39453,0.12109 -0.55898,0.34549 -0.75787,1.04662 -0.44141,1.5586 0.85723,1.38705 1.45704,1.12763 1.45704,-0.62891 0,-0.64318 -0.25666,-1.03854 -0.6211,-1.05078 z m -0.20312,5.61133 c -0.57178,0 -1.33993,0.94495 -1.70704,2.10156 -0.27527,0.86731 -1.4583,2.41408 -3.0039,4.14453 -0.23218,0.13084 -0.38984,0.30513 -0.44141,0.5 -3.20007,3.48806 -7.79158,7.60076 -10.30859,8.90234 -2.52058,1.30345 -6.74408,2.07893 -12.52344,2.30079 -0.045,0.002 -0.0872,0.005 -0.1289,0.01 -0.0417,0.005 -0.0827,0.0112 -0.1211,0.0195 -0.53724,0.11652 -0.73884,0.54024 -0.4414,1.02149 0.3399,0.54999 1.91492,1 3.5,1 0.19812,0 0.39636,-0.008 0.59179,-0.0215 1.36799,-0.0937 2.61077,-0.49727 2.90821,-0.97851 0.0425,-0.0687 0.11065,-0.13623 0.19921,-0.20117 0.61998,-0.4546 2.29695,-0.79883 4.03907,-0.79883 4.85499,0 10.13017,-2.00684 10.79687,-4.10742 0.29819,-0.93952 1.19984,-1.96113 2.00391,-2.26954 0.80406,-0.30856 1.46093,-1.24952 1.46094,-2.09179 0,-0.84227 0.39888,-1.53125 0.88476,-1.53125 0.48589,0 1.10271,-1.01251 1.37109,-2.25 0.26839,-1.2375 0.81809,-3.03751 1.22266,-4 0.42712,-1.01617 0.30092,-1.75 -0.30273,-1.75 z m -41.29297,14 c -0.55001,0 -0.72275,0.45 -0.38281,1 0.33991,0.55003 1.06913,1 1.61914,1 0.55,0 0.72078,-0.44997 0.38086,-1 -0.33992,-0.55 -1.06719,-1 -1.61719,-1 z m 4.55859,2 c -0.85749,0 -1.28134,0.45 -0.9414,1 0.3399,0.54999 1.043,1 1.56054,1 0.51754,0 0.93945,-0.45001 0.93946,-1 0,-0.55 -0.70114,-1 -1.5586,-1 z"
             transform="matrix(0.26458333,0,0,0.26458333,-108.25963,86.966417)" />
        </g>
      </g>
    </g>
  </g>
</svg>
